<?xml version="1.0" encoding="UTF-8" standalone="no"?>
<!-- Created with Inkscape (http://www.inkscape.org/) -->

<svg
   width="210mm"
   height="297mm"
   viewBox="0 0 210 297"
   version="1.1"
   id="svg4598"
   sodipodi:docname="sunnies.svg"
   inkscape:version="1.1.2 (b8e25be8, 2022-02-05)"
   xmlns:inkscape="http://www.inkscape.org/namespaces/inkscape"
   xmlns:sodipodi="http://sodipodi.sourceforge.net/DTD/sodipodi-0.dtd"
   xmlns="http://www.w3.org/2000/svg"
   xmlns:svg="http://www.w3.org/2000/svg">
  <sodipodi:namedview
     id="namedview4600"
     pagecolor="#ffffff"
     bordercolor="#666666"
     borderopacity="1.0"
     inkscape:pageshadow="2"
     inkscape:pageopacity="0.0"
     inkscape:pagecheckerboard="0"
     inkscape:document-units="mm"
     showgrid="false"
     inkscape:zoom="1.3178147"
     inkscape:cx="338.8185"
     inkscape:cy="544.46198"
     inkscape:window-width="1280"
     inkscape:window-height="693"
     inkscape:window-x="0"
     inkscape:window-y="23"
     inkscape:window-maximized="0"
     inkscape:current-layer="layer1" />
  <defs
     id="defs4595" />
  <g
     inkscape:label="Layer 1"
     inkscape:groupmode="layer"
     id="layer1"
     style="display:inline">
    <g
       inkscape:groupmode="layer"
       id="layer8"
       inkscape:label="Layer 3"
       style="display:none">
      <rect
         style="display:inline;fill:#ffff00;stroke-width:0.264583"
         id="rect5364"
         width="83.355156"
         height="74.53875"
         x="63.117489"
         y="111.80812" />
    </g>
    <path
       id="rect2"
       style="fill:#280b0b;stroke-width:0.999999"
       d="M 450.79102 517.03516 C 444.85916 517.15148 439.58182 518.01978 434.89258 519.4082 L 422.53125 519.4082 L 393.64844 519.4082 L 364.17383 519.4082 L 352.40234 519.4082 C 347.74228 518.02841 342.50375 517.16097 336.61523 517.03711 C 333.02318 516.96155 329.1917 517.1615 325.10547 517.6875 C 281.51747 523.2982 262.96081 527.18103 264.6875 539.04883 C 266.4141 550.91683 271.15954 547.98042 273.96484 559.48242 C 275.39427 565.34249 276.10793 571.01374 281.875 574.77148 C 285.08914 584.01434 290.40789 592.73015 296.60156 598.92383 C 312.28956 614.61183 347.98152 616.70753 363.66992 601.01953 C 370.44096 594.24849 375.19453 584.26904 377.15625 573.85352 C 385.62226 566.88186 388.62839 556.53242 386.17188 550.48438 C 385.99009 550.03689 385.75291 549.47911 385.4668 548.8418 L 389.12109 548.8418 L 393.64844 548.8418 L 401.83008 548.8418 C 401.54398 549.47911 401.30678 550.03689 401.125 550.48438 C 398.66847 556.53242 401.67463 566.88186 410.14062 573.85352 C 412.10231 584.26902 416.85593 594.2485 423.62695 601.01953 C 439.31495 616.70753 475.00536 614.61183 490.69336 598.92383 C 496.88703 592.73015 502.20584 584.01434 505.41992 574.77148 C 511.18717 571.01374 511.90086 565.34249 513.33008 559.48242 C 516.13608 547.98042 520.88238 550.91683 522.60938 539.04883 C 524.33635 527.18103 505.77745 523.2982 462.18945 517.6875 C 458.14499 517.16689 454.35013 516.96536 450.79102 517.03516 z M 360.85352 522.73633 L 364.41406 522.73633 L 393.64844 522.73633 L 422.29297 522.73633 L 426.44336 522.73633 C 415.8964 528.01399 409.29739 535.93569 405.40234 542.1875 L 393.64844 542.1875 L 385.45117 542.1875 C 385.45117 542.1875 385.45117 542.18555 385.45117 542.18555 L 381.89062 542.18555 C 377.99512 535.93424 371.39881 528.01316 360.85352 522.73633 z "
       transform="scale(0.26458333)" />
    <g
       mask="url(#mask0_4_1093)"
       id="g11"
       transform="matrix(0.26458333,0,0,0.26458333,67.092292,114.2442)"
       style="fill:none" />
    <g
       mask="url(#mask1_4_1093)"
       id="g18"
       transform="matrix(0.26458333,0,0,0.26458333,67.092292,114.2442)"
       style="fill:none" />
    <g
       mask="url(#mask2_4_1093)"
       id="g27"
       transform="matrix(0.26458333,0,0,0.26458333,67.092292,114.2442)"
       style="fill:none" />
    <g
       mask="url(#mask3_4_1093)"
       id="g34"
       transform="matrix(0.26458333,0,0,0.26458333,67.092292,114.2442)"
       style="fill:none" />
    <g
       id="g4740"
       transform="matrix(0.26458333,0,0,0.26458333,67.092292,114.2442)"
       style="fill:none">
      <path
         d="m 148.185,110.397 c -0.155,2.642 -1.378,5.202 -3.67,6.655 h 8.307 v -6.655 z"
         fill="#ffffff"
         id="path16"
         style="fill:none"
         transform="translate(2.2834645e-6)" />
    </g>
    <g
       inkscape:groupmode="layer"
       id="layer4"
       inkscape:label="Layer 2"
       style="display:none" />
  </g>
</svg>
