<?xml version="1.0" encoding="UTF-8" standalone="no"?>
<!-- Created with Inkscape (http://www.inkscape.org/) -->

<svg
   width="210mm"
   height="297mm"
   viewBox="0 0 210 297"
   version="1.1"
   id="svg4598"
   sodipodi:docname="sunnies-round.svg"
   inkscape:version="1.1.2 (b8e25be8, 2022-02-05)"
   xmlns:inkscape="http://www.inkscape.org/namespaces/inkscape"
   xmlns:sodipodi="http://sodipodi.sourceforge.net/DTD/sodipodi-0.dtd"
   xmlns="http://www.w3.org/2000/svg"
   xmlns:svg="http://www.w3.org/2000/svg">
  <sodipodi:namedview
     id="namedview4600"
     pagecolor="#ffffff"
     bordercolor="#666666"
     borderopacity="1.0"
     inkscape:pageshadow="2"
     inkscape:pageopacity="0.0"
     inkscape:pagecheckerboard="0"
     inkscape:document-units="mm"
     showgrid="false"
     inkscape:zoom="1.3178147"
     inkscape:cx="473.8906"
     inkscape:cy="584.68008"
     inkscape:window-width="1280"
     inkscape:window-height="693"
     inkscape:window-x="0"
     inkscape:window-y="23"
     inkscape:window-maximized="0"
     inkscape:current-layer="layer3" />
  <defs
     id="defs4595">
    <mask
       id="mask0_4_1045"
       maskUnits="userSpaceOnUse"
       x="88"
       y="25"
       width="74"
       height="30">
      <path
         d="m 88.916,25.0613 h 72.231 v 29.228 H 88.916 Z"
         fill="#ffffff"
         id="path109" />
    </mask>
  </defs>
  <g
     inkscape:groupmode="layer"
     id="layer3"
     inkscape:label="bg"
     style="display:none">
    <rect
       style="display:inline;fill:#ffff00;stroke-width:0.264583"
       id="rect5364"
       width="83.355156"
       height="74.53875"
       x="63.117489"
       y="111.80812" />
  </g>
  <g
     inkscape:label="Layer 1"
     inkscape:groupmode="layer"
     id="layer1"
     style="display:none"
     sodipodi:insensitive="true">
    <path
       id="rect2"
       style="fill:#280b0b;stroke-width:0.999999"
       d="m 450.79102,517.03516 c -5.93186,0.11632 -11.2092,0.98462 -15.89844,2.37304 h -12.36133 -28.88281 -29.47461 -11.77149 c -4.66006,-1.37979 -9.89859,-2.24723 -15.78711,-2.37109 -3.59205,-0.0756 -7.42353,0.12439 -11.50976,0.65039 -43.588,5.6107 -62.14466,9.49353 -60.41797,21.36133 1.7266,11.868 6.47204,8.93159 9.27734,20.43359 1.42943,5.86007 2.14309,11.53132 7.91016,15.28906 3.21414,9.24286 8.53289,17.95867 14.72656,24.15235 15.688,15.688 51.37996,17.7837 67.06836,2.0957 6.77104,-6.77104 11.52461,-16.75049 13.48633,-27.16601 8.46601,-6.97166 11.47214,-17.3211 9.01563,-23.36914 -0.18179,-0.44749 -0.41897,-1.00527 -0.70508,-1.64258 h 3.65429 4.52735 8.18164 c -0.2861,0.63731 -0.5233,1.19509 -0.70508,1.64258 -2.45653,6.04804 0.54963,16.39748 9.01562,23.36914 1.96169,10.4155 6.71531,20.39498 13.48633,27.16601 15.688,15.688 51.37841,13.5923 67.06641,-2.0957 6.19367,-6.19368 11.51248,-14.90949 14.72656,-24.15235 5.76725,-3.75774 6.48094,-9.42899 7.91016,-15.28906 2.806,-11.502 7.5523,-8.56559 9.2793,-20.43359 1.72697,-11.8678 -16.83193,-15.75063 -60.41993,-21.36133 -4.04446,-0.52061 -7.83932,-0.72214 -11.39843,-0.65234 z m -89.9375,5.70117 h 3.56054 29.23438 28.64453 4.15039 c -10.54696,5.27766 -17.14597,13.19936 -21.04102,19.45117 h -11.7539 -8.19727 c 0,0 0,-0.002 0,-0.002 h -3.56055 c -3.8955,-6.25131 -10.49181,-14.17239 -21.0371,-19.44922 z"
       transform="scale(0.26458333)" />
    <g
       mask="url(#mask0_4_1093)"
       id="g11"
       transform="matrix(0.26458333,0,0,0.26458333,67.092292,114.2442)"
       style="fill:none" />
    <g
       mask="url(#mask1_4_1093)"
       id="g18"
       transform="matrix(0.26458333,0,0,0.26458333,67.092292,114.2442)"
       style="fill:none" />
    <g
       mask="url(#mask2_4_1093)"
       id="g27"
       transform="matrix(0.26458333,0,0,0.26458333,67.092292,114.2442)"
       style="fill:none" />
    <g
       mask="url(#mask3_4_1093)"
       id="g34"
       transform="matrix(0.26458333,0,0,0.26458333,67.092292,114.2442)"
       style="fill:none" />
    <g
       id="g4740"
       transform="matrix(0.26458333,0,0,0.26458333,67.092292,114.2442)"
       style="fill:none">
      <path
         d="m 148.185,110.397 c -0.155,2.642 -1.378,5.202 -3.67,6.655 h 8.307 v -6.655 z"
         fill="#ffffff"
         id="path16"
         style="fill:none"
         transform="translate(2.2834645e-6)" />
    </g>
    <g
       inkscape:groupmode="layer"
       id="layer4"
       inkscape:label="Layer 2"
       style="display:inline" />
  </g>
  <g
     inkscape:groupmode="layer"
     id="layer9"
     inkscape:label="lenses"
     style="display:none">
    <path
       d="m 96.397887,160.08949 c -4.15089,4.15078 -13.594398,3.59621 -17.745181,-0.55457 -4.150783,-4.15078 -6.830827,-12.57776 -2.680044,-16.72855 4.150439,-4.1507 17.568333,-3.87342 21.719037,0.27729 4.150781,4.15078 2.856971,12.85504 -1.293812,17.00583 z"
       fill="#ffffff"
       id="path6663"
       style="display:inline;fill:#00ff00;stroke-width:0.264583" />
    <path
       d="m 112.26125,160.08949 c 4.15078,4.15078 13.59429,3.59621 17.74507,-0.55457 4.15079,-4.15078 6.83075,-12.57776 2.67997,-16.72855 -4.15026,-4.1507 -17.56834,-3.87342 -21.71912,0.27729 -4.15025,4.15078 -2.85671,12.85504 1.29408,17.00583 z"
       fill="#ffffff"
       id="path6665"
       style="display:inline;fill:#00ff00;stroke-width:0.264583" />
  </g>
  <g
     inkscape:groupmode="layer"
     id="layer2"
     inkscape:label="round"
     style="display:inline">
    <g
       id="g205"
       transform="translate(-62.615699,-23.997962)"
       style="display:inline">
      <path
         id="path107"
         style="stroke-width:0.999999"
         d="M 323.88672 513.80273 C 294.392 513.80273 270.48438 537.71371 270.48438 567.20703 C 270.48437 596.70042 294.392 620.60938 323.88672 620.60938 C 353.38 620.60938 377.28906 596.70042 377.28906 567.20703 C 377.28906 562.12423 376.57838 557.20615 375.25195 552.54883 C 379.72648 546.56932 386.86296 542.69141 394.88867 542.69141 C 402.7452 542.69141 409.7505 546.40671 414.24023 552.17188 C 412.84365 556.94093 412.0918 561.98642 412.0918 567.20703 C 412.0918 596.70042 435.99916 620.60938 465.49414 620.60938 C 494.98715 620.60938 518.89648 596.70042 518.89648 567.20703 C 518.89648 537.71371 494.98715 513.80273 465.49414 513.80273 C 445.71349 513.80273 428.4456 524.5575 419.2168 540.53711 C 412.79337 534.67286 404.25158 531.0918 394.88867 531.0918 C 385.39838 531.0918 376.75295 534.77342 370.30078 540.78125 C 361.10696 524.66754 343.76648 513.80273 323.88672 513.80273 z "
         transform="matrix(0.26458333,0,0,0.26458333,62.615699,23.997962)" />
    </g>
  </g>
</svg>
