<?xml version="1.0" encoding="UTF-8" standalone="no"?>
<!-- Created with Inkscape (http://www.inkscape.org/) -->

<svg
   width="210mm"
   height="297mm"
   viewBox="0 0 210 297"
   version="1.1"
   id="svg4598"
   sodipodi:docname="sunnies-standard.svg"
   inkscape:version="1.1.2 (b8e25be8, 2022-02-05)"
   xmlns:inkscape="http://www.inkscape.org/namespaces/inkscape"
   xmlns:sodipodi="http://sodipodi.sourceforge.net/DTD/sodipodi-0.dtd"
   xmlns="http://www.w3.org/2000/svg"
   xmlns:svg="http://www.w3.org/2000/svg">
  <sodipodi:namedview
     id="namedview4600"
     pagecolor="#ffffff"
     bordercolor="#666666"
     borderopacity="1.0"
     inkscape:pageshadow="2"
     inkscape:pageopacity="0.0"
     inkscape:pagecheckerboard="0"
     inkscape:document-units="mm"
     showgrid="false"
     inkscape:zoom="1.3178147"
     inkscape:cx="431.39601"
     inkscape:cy="552.80913"
     inkscape:window-width="1280"
     inkscape:window-height="693"
     inkscape:window-x="0"
     inkscape:window-y="23"
     inkscape:window-maximized="0"
     inkscape:current-layer="layer7" />
  <defs
     id="defs4595">
    <mask
       id="mask0_4_1045"
       maskUnits="userSpaceOnUse"
       x="88"
       y="25"
       width="74"
       height="30">
      <path
         d="m 88.916,25.0613 h 72.231 v 29.228 H 88.916 Z"
         fill="#ffffff"
         id="path109" />
    </mask>
  </defs>
  <g
     inkscape:groupmode="layer"
     id="layer3"
     inkscape:label="bg"
     style="display:none">
    <rect
       style="display:inline;fill:#ffff00;stroke-width:0.264583"
       id="rect5364"
       width="83.355156"
       height="74.53875"
       x="63.117489"
       y="111.80812" />
  </g>
  <g
     inkscape:label="Layer 1"
     inkscape:groupmode="layer"
     id="layer1"
     style="display:none"
     sodipodi:insensitive="true">
    <path
       id="rect2"
       style="fill:#280b0b;stroke-width:0.999999"
       d="m 450.79102,517.03516 c -5.93186,0.11632 -11.2092,0.98462 -15.89844,2.37304 h -12.36133 -28.88281 -29.47461 -11.77149 c -4.66006,-1.37979 -9.89859,-2.24723 -15.78711,-2.37109 -3.59205,-0.0756 -7.42353,0.12439 -11.50976,0.65039 -43.588,5.6107 -62.14466,9.49353 -60.41797,21.36133 1.7266,11.868 6.47204,8.93159 9.27734,20.43359 1.42943,5.86007 2.14309,11.53132 7.91016,15.28906 3.21414,9.24286 8.53289,17.95867 14.72656,24.15235 15.688,15.688 51.37996,17.7837 67.06836,2.0957 6.77104,-6.77104 11.52461,-16.75049 13.48633,-27.16601 8.46601,-6.97166 11.47214,-17.3211 9.01563,-23.36914 -0.18179,-0.44749 -0.41897,-1.00527 -0.70508,-1.64258 h 3.65429 4.52735 8.18164 c -0.2861,0.63731 -0.5233,1.19509 -0.70508,1.64258 -2.45653,6.04804 0.54963,16.39748 9.01562,23.36914 1.96169,10.4155 6.71531,20.39498 13.48633,27.16601 15.688,15.688 51.37841,13.5923 67.06641,-2.0957 6.19367,-6.19368 11.51248,-14.90949 14.72656,-24.15235 5.76725,-3.75774 6.48094,-9.42899 7.91016,-15.28906 2.806,-11.502 7.5523,-8.56559 9.2793,-20.43359 1.72697,-11.8678 -16.83193,-15.75063 -60.41993,-21.36133 -4.04446,-0.52061 -7.83932,-0.72214 -11.39843,-0.65234 z m -89.9375,5.70117 h 3.56054 29.23438 28.64453 4.15039 c -10.54696,5.27766 -17.14597,13.19936 -21.04102,19.45117 h -11.7539 -8.19727 c 0,0 0,-0.002 0,-0.002 h -3.56055 c -3.8955,-6.25131 -10.49181,-14.17239 -21.0371,-19.44922 z"
       transform="scale(0.26458333)" />
    <g
       mask="url(#mask0_4_1093)"
       id="g11"
       transform="matrix(0.26458333,0,0,0.26458333,67.092292,114.2442)"
       style="fill:none" />
    <g
       mask="url(#mask1_4_1093)"
       id="g18"
       transform="matrix(0.26458333,0,0,0.26458333,67.092292,114.2442)"
       style="fill:none" />
    <g
       mask="url(#mask2_4_1093)"
       id="g27"
       transform="matrix(0.26458333,0,0,0.26458333,67.092292,114.2442)"
       style="fill:none" />
    <g
       mask="url(#mask3_4_1093)"
       id="g34"
       transform="matrix(0.26458333,0,0,0.26458333,67.092292,114.2442)"
       style="fill:none" />
    <g
       id="g4740"
       transform="matrix(0.26458333,0,0,0.26458333,67.092292,114.2442)"
       style="fill:none">
      <path
         d="m 148.185,110.397 c -0.155,2.642 -1.378,5.202 -3.67,6.655 h 8.307 v -6.655 z"
         fill="#ffffff"
         id="path16"
         style="fill:none"
         transform="translate(2.2834645e-6)" />
    </g>
    <g
       inkscape:groupmode="layer"
       id="layer4"
       inkscape:label="Layer 2"
       style="display:inline" />
  </g>
  <g
     inkscape:groupmode="layer"
     id="layer9"
     inkscape:label="lenses"
     style="display:none">
    <path
       d="m 96.397887,160.08949 c -4.15089,4.15078 -13.594398,3.59621 -17.745181,-0.55457 -4.150783,-4.15078 -6.830827,-12.57776 -2.680044,-16.72855 4.150439,-4.1507 17.568333,-3.87342 21.719037,0.27729 4.150781,4.15078 2.856971,12.85504 -1.293812,17.00583 z"
       fill="#ffffff"
       id="path6663"
       style="display:inline;fill:#00ff00;stroke-width:0.264583" />
    <path
       d="m 112.26125,160.08949 c 4.15078,4.15078 13.59429,3.59621 17.74507,-0.55457 4.15079,-4.15078 6.83075,-12.57776 2.67997,-16.72855 -4.15026,-4.1507 -17.56834,-3.87342 -21.71912,0.27729 -4.15025,4.15078 -2.85671,12.85504 1.29408,17.00583 z"
       fill="#ffffff"
       id="path6665"
       style="display:inline;fill:#00ff00;stroke-width:0.264583" />
  </g>
  <g
     inkscape:groupmode="layer"
     id="layer2"
     inkscape:label="round"
     style="display:none">
    <g
       id="g205"
       transform="translate(-62.615699,-23.997962)"
       style="display:inline">
      <path
         d="m 176.65248,174.07124 h -3.06917 c 0,-3.57648 -2.90988,-6.48618 -6.48652,-6.48618 -3.57637,0 -6.486,2.9097 -6.486,6.48618 h -3.06924 c 0,-5.26875 4.28659,-9.55535 9.55524,-9.55535 5.26918,0 9.55569,4.2866 9.55569,9.55535 z"
         fill="#ffe36d"
         id="path107"
         style="stroke-width:0.264583" />
      <g
         mask="url(#mask0_4_1045)"
         id="g116"
         transform="matrix(0.26458333,0,0,0.26458333,134.01567,159.70733)">
        <path
           d="m 103.25,25.5049 c -8.7015,6.6013 -14.3335,17.0453 -14.3335,28.784 h 11.6005 c 0,-7.6694 3.545,-14.52 9.076,-19.0187 -2.888,-2.6373 -5.115,-5.988 -6.343,-9.7653 z"
           fill="#ffe36d"
           id="path112" />
        <path
           d="m 146.21,25.0614 c -1.152,3.8107 -3.306,7.212 -6.145,9.9054 5.759,4.4893 9.481,11.472 9.481,19.3226 h 11.602 c 0,-12.008 -5.895,-22.6573 -14.938,-29.228 z"
           fill="#ffe36d"
           id="path114" />
      </g>
      <path
         d="m 162.44012,174.07127 c 0,7.80346 -6.32603,14.12957 -14.12946,14.12957 -7.80381,0 -14.12947,-6.32611 -14.12947,-14.12957 0,-7.80344 6.32566,-14.12945 14.12947,-14.12945 7.80343,0 14.12946,6.32601 14.12946,14.12945 z"
         fill="#ffe36d"
         id="path118"
         style="stroke-width:0.264583" />
      <path
         d="m 199.90724,174.07127 c 0,7.80346 -6.32619,14.12957 -14.12955,14.12957 -7.80388,0 -14.12954,-6.32611 -14.12954,-14.12957 0,-7.80344 6.32566,-14.12945 14.12954,-14.12945 7.80336,0 14.12955,6.32601 14.12955,14.12945 z"
         fill="#ffe36d"
         id="path120"
         style="stroke-width:0.264583" />
      <path
         d="m 197.36697,174.07127 c 0,6.4008 -5.18848,11.58946 -11.58928,11.58946 -6.40053,0 -11.58954,-5.18866 -11.58954,-11.58946 0,-6.4008 5.18901,-11.58947 11.58954,-11.58947 6.4008,0 11.58928,5.18867 11.58928,11.58947 z"
         fill="#332a31"
         id="path122"
         style="stroke-width:0.264583" />
      <path
         d="m 159.89996,174.07127 c 0,6.4008 -5.18866,11.58946 -11.58946,11.58946 -6.40043,0 -11.58944,-5.18866 -11.58944,-11.58946 0,-6.4008 5.18901,-11.58947 11.58944,-11.58947 6.4008,0 11.58946,5.18867 11.58946,11.58947 z"
         fill="#332a31"
         id="path124"
         style="stroke-width:0.264583" />
    </g>
  </g>
  <g
     inkscape:groupmode="layer"
     id="layer5"
     inkscape:label="aviator"
     style="display:none"
     sodipodi:insensitive="true">
    <g
       style="fill:none"
       id="g445"
       transform="matrix(0.26458333,0,0,0.26458333,71.066331,137.92002)">
      <path
         id="path397"
         style="fill:#000000"
         d="m 324.26367,521.63086 c -30.6546,0 -46.36479,5.30335 -50.93945,17.19531 -1.812,4.7134 -5.18316,19.53067 -4.03516,35.25195 1.44534,19.8067 9.59692,33.23157 23.57422,38.82227 5.524,2.2093 11.14759,3.33008 16.71289,3.33008 h 0.004 c 22.8013,0 39.93197,-18.31251 50.16797,-29.25391 0.5867,-0.628 1.14945,-1.23073 1.68945,-1.80273 8.87794,-9.41077 15.98705,-24.22461 16.72266,-35.8086 0.21649,-0.2256 0.37454,-0.51352 0.43554,-0.84375 0.011,-0.0573 1.43566,-5.75586 14.84766,-5.75586 13.211,0 14.80852,5.61577 14.85352,5.78907 0.0646,0.3168 0.21897,0.5919 0.42773,0.81054 0.73548,11.584 7.84484,26.39781 16.72266,35.8086 0.54,0.572 1.1044,1.17473 1.6914,1.80273 10.236,10.9414 27.36597,29.25391 50.16797,29.25391 h 0.002 c 5.566,0 11.18889,-1.12078 16.71289,-3.33008 13.977,-5.5907 22.12922,-19.01557 23.57422,-38.82227 1.148,-15.72128 -2.22315,-30.53855 -4.03515,-35.25195 -4.574,-11.89196 -20.28446,-17.19531 -50.93946,-17.19531 -5.30556,0 -15.84166,1.22825 -26.65429,3.90039 -0.0899,-0.36377 -0.29878,-0.67928 -0.58399,-0.9043 -0.13949,-0.11005 -0.2963,-0.19862 -0.46679,-0.25976 -0.005,-0.002 -0.0104,-0.004 -0.0156,-0.006 -0.17106,-0.0594 -0.35549,-0.0937 -0.54687,-0.0937 h -7.625 -67.22266 -6.97461 c -0.1911,0 -0.37406,0.0345 -0.54492,0.0937 -0.007,0.002 -0.0129,0.005 -0.0195,0.008 -0.16931,0.0611 -0.32621,0.14837 -0.46485,0.25781 -0.28495,0.22494 -0.49207,0.54077 -0.58203,0.9043 -10.81304,-2.67246 -21.35037,-3.90039 -26.65625,-3.90039 z m 33.97266,5.96289 h 69.83008 0.58203 c -9.19274,2.92279 -15.14909,6.3424 -17.63086,10.21484 -1.09239,1.70415 -1.7823,3.73083 -2.12696,5.98438 -2.40924,-2.15796 -6.94431,-4.35352 -15.44726,-4.35352 -8.50347,0 -13.03959,2.19556 -15.44922,4.35352 -0.34458,-2.25355 -1.03472,-4.28023 -2.12695,-5.98438 -2.48259,-3.87244 -8.43841,-7.29205 -17.63086,-10.21484 z"
         transform="translate(-268.59716,-521.27252)" />
      <g
         mask="url(#mask0_4_1046)"
         id="g406"
         style="fill:#000000">
        <path
           d="m 137.056,20.4065 c -0.172,1.1293 -0.479,2.2307 -0.912,3.2773 2.974,1.5974 3.529,3.4987 3.554,3.5987 0.162,0.784 0.852,1.3293 1.628,1.3293 0.1,0 0.202,-0.0093 0.303,-0.028 0.904,-0.1666 1.501,-1.0333 1.335,-1.936 -0.043,-0.228 -0.783,-3.8066 -5.908,-6.2413 z"
           fill="#ff7c50"
           id="path402"
           style="fill:#000000" />
        <path
           d="m 112.364,20.5434 c -4.875,2.4307 -5.596,5.8814 -5.636,6.104 -0.167,0.9027 0.429,1.7694 1.333,1.936 0.894,0.1627 1.77,-0.4306 1.936,-1.3346 0.007,-0.032 0.471,-1.872 3.302,-3.4627 -0.438,-1.0347 -0.754,-2.124 -0.935,-3.2427 z"
           fill="#ff7c50"
           id="path404"
           style="fill:#000000" />
      </g>
      <g
         mask="url(#mask1_4_1046)"
         id="g417" />
      <path
         d="m 194.045,4.99852 c 31.208,0 42.968,5.87998 46.361,14.69998 3.392,8.82 12.212,55.8587 -17.188,67.6187 -29.4,11.76 -51.563,-14.0213 -62.869,-26.008 -11.308,-11.9853 -19.223,-33.244 -13.57,-42.064 5.655,-8.8187 36.387,-14.24668 47.266,-14.24668 z"
         fill="#ffe36d"
         id="path425"
         style="fill:#000000" />
    </g>
  </g>
  <g
     inkscape:groupmode="layer"
     id="layer7"
     inkscape:label="standard">
    <path
       d="m 127.34116,138.87567 c -1.7145,-0.23706 -3.33905,-0.30163 -4.59026,-0.30163 -0.15901,0 -0.31988,0.001 -0.4826,0.004 h -0.002 c -3.11256,0.042 -6.86303,0.49107 -9.91129,1.54446 l 2.6e-4,-3.5e-4 c -4.75747,1.53777 -5.71579,1.7773 -8.30262,1.7773 -2.58683,0 -3.54463,-0.23953 -8.302358,-1.7773 -3.047894,-1.05339 -6.798627,-1.50213 -9.911185,-1.54411 h -0.0021 c -0.162613,-0.002 -0.32385,-0.004 -0.4826,-0.004 -1.251294,0 -2.875836,0.0646 -4.590336,0.30163 -6.267449,0.65299 -12.634737,2.15124 -12.634737,2.15124 v 4.98547 c 1.190273,0 1.636887,0.89251 2.303989,5.47298 l 0.0018,-10e-4 c 0.414173,3.99415 2.034455,7.78896 3.986021,9.2738 1.970273,1.49932 6.153865,2.54635 10.173415,2.54672 h 0.0018 c 3.123142,0 7.488053,-0.62018 10.549176,-3.57364 2.660914,-2.56681 4.490508,-5.93831 5.435855,-8.98173 l 0.003,0.006 c 0.005,-0.0226 0.0106,-0.0427 0.0153,-0.0649 0.14235,-0.4618 0.26405,-0.91512 0.3646,-1.35715 1.016,-3.39514 3.08848,-3.21874 3.08848,-3.21874 0,0 1.98728,-0.0928 3.08901,3.21874 0.10054,0.44203 0.22225,0.89535 0.36406,1.35715 0.005,0.0222 0.0106,0.0423 0.0159,0.0649 l 0.003,-0.006 c 0.9451,3.04342 2.77469,6.41492 5.43613,8.98173 3.06097,2.95346 7.4258,3.57364 10.54894,3.57364 h 0.002 c 4.01981,-3.7e-4 8.2034,-1.0474 10.17376,-2.54672 1.95156,-1.48484 3.57187,-5.27965 3.98594,-9.2738 l 10e-4,10e-4 c 0.66754,-4.58047 1.11389,-5.47298 2.30452,-5.47298 v -4.98547 c 0,0 -6.36746,-1.49825 -12.63491,-2.15124 z"
       fill="#ff5e43"
       id="path1631"
       style="display:inline;fill:#000000;stroke-width:0.264583" />
  </g>
</svg>
