<?xml version="1.0" encoding="UTF-8" standalone="no"?>
<!-- Created with Inkscape (http://www.inkscape.org/) -->

<svg
   width="210mm"
   height="297mm"
   viewBox="0 0 210 297"
   version="1.1"
   id="svg4598"
   sodipodi:docname="sunnies-aviator.svg"
   inkscape:version="1.1.2 (b8e25be8, 2022-02-05)"
   xmlns:inkscape="http://www.inkscape.org/namespaces/inkscape"
   xmlns:sodipodi="http://sodipodi.sourceforge.net/DTD/sodipodi-0.dtd"
   xmlns="http://www.w3.org/2000/svg"
   xmlns:svg="http://www.w3.org/2000/svg">
  <sodipodi:namedview
     id="namedview4600"
     pagecolor="#ffffff"
     bordercolor="#666666"
     borderopacity="1.0"
     inkscape:pageshadow="2"
     inkscape:pageopacity="0.0"
     inkscape:pagecheckerboard="0"
     inkscape:document-units="mm"
     showgrid="false"
     inkscape:zoom="1.3178147"
     inkscape:cx="431.39601"
     inkscape:cy="552.80913"
     inkscape:window-width="1280"
     inkscape:window-height="693"
     inkscape:window-x="0"
     inkscape:window-y="23"
     inkscape:window-maximized="0"
     inkscape:current-layer="layer3" />
  <defs
     id="defs4595">
    <mask
       id="mask0_4_1045"
       maskUnits="userSpaceOnUse"
       x="88"
       y="25"
       width="74"
       height="30">
      <path
         d="m 88.916,25.0613 h 72.231 v 29.228 H 88.916 Z"
         fill="#ffffff"
         id="path109" />
    </mask>
  </defs>
  <g
     inkscape:groupmode="layer"
     id="layer3"
     inkscape:label="bg"
     style="display:none">
    <rect
       style="display:inline;fill:#ffff00;stroke-width:0.264583"
       id="rect5364"
       width="83.355156"
       height="74.53875"
       x="63.117489"
       y="111.80812" />
  </g>
  <g
     inkscape:label="Layer 1"
     inkscape:groupmode="layer"
     id="layer1"
     style="display:none"
     sodipodi:insensitive="true">
    <path
       id="rect2"
       style="fill:#280b0b;stroke-width:0.999999"
       d="m 450.79102,517.03516 c -5.93186,0.11632 -11.2092,0.98462 -15.89844,2.37304 h -12.36133 -28.88281 -29.47461 -11.77149 c -4.66006,-1.37979 -9.89859,-2.24723 -15.78711,-2.37109 -3.59205,-0.0756 -7.42353,0.12439 -11.50976,0.65039 -43.588,5.6107 -62.14466,9.49353 -60.41797,21.36133 1.7266,11.868 6.47204,8.93159 9.27734,20.43359 1.42943,5.86007 2.14309,11.53132 7.91016,15.28906 3.21414,9.24286 8.53289,17.95867 14.72656,24.15235 15.688,15.688 51.37996,17.7837 67.06836,2.0957 6.77104,-6.77104 11.52461,-16.75049 13.48633,-27.16601 8.46601,-6.97166 11.47214,-17.3211 9.01563,-23.36914 -0.18179,-0.44749 -0.41897,-1.00527 -0.70508,-1.64258 h 3.65429 4.52735 8.18164 c -0.2861,0.63731 -0.5233,1.19509 -0.70508,1.64258 -2.45653,6.04804 0.54963,16.39748 9.01562,23.36914 1.96169,10.4155 6.71531,20.39498 13.48633,27.16601 15.688,15.688 51.37841,13.5923 67.06641,-2.0957 6.19367,-6.19368 11.51248,-14.90949 14.72656,-24.15235 5.76725,-3.75774 6.48094,-9.42899 7.91016,-15.28906 2.806,-11.502 7.5523,-8.56559 9.2793,-20.43359 1.72697,-11.8678 -16.83193,-15.75063 -60.41993,-21.36133 -4.04446,-0.52061 -7.83932,-0.72214 -11.39843,-0.65234 z m -89.9375,5.70117 h 3.56054 29.23438 28.64453 4.15039 c -10.54696,5.27766 -17.14597,13.19936 -21.04102,19.45117 h -11.7539 -8.19727 c 0,0 0,-0.002 0,-0.002 h -3.56055 c -3.8955,-6.25131 -10.49181,-14.17239 -21.0371,-19.44922 z"
       transform="scale(0.26458333)" />
    <g
       mask="url(#mask0_4_1093)"
       id="g11"
       transform="matrix(0.26458333,0,0,0.26458333,67.092292,114.2442)"
       style="fill:none" />
    <g
       mask="url(#mask1_4_1093)"
       id="g18"
       transform="matrix(0.26458333,0,0,0.26458333,67.092292,114.2442)"
       style="fill:none" />
    <g
       mask="url(#mask2_4_1093)"
       id="g27"
       transform="matrix(0.26458333,0,0,0.26458333,67.092292,114.2442)"
       style="fill:none" />
    <g
       mask="url(#mask3_4_1093)"
       id="g34"
       transform="matrix(0.26458333,0,0,0.26458333,67.092292,114.2442)"
       style="fill:none" />
    <g
       id="g4740"
       transform="matrix(0.26458333,0,0,0.26458333,67.092292,114.2442)"
       style="fill:none">
      <path
         d="m 148.185,110.397 c -0.155,2.642 -1.378,5.202 -3.67,6.655 h 8.307 v -6.655 z"
         fill="#ffffff"
         id="path16"
         style="fill:none"
         transform="translate(2.2834645e-6)" />
    </g>
    <g
       inkscape:groupmode="layer"
       id="layer4"
       inkscape:label="Layer 2"
       style="display:inline" />
  </g>
  <g
     inkscape:groupmode="layer"
     id="layer9"
     inkscape:label="lenses"
     style="display:none">
    <path
       d="m 96.397887,160.08949 c -4.15089,4.15078 -13.594398,3.59621 -17.745181,-0.55457 -4.150783,-4.15078 -6.830827,-12.57776 -2.680044,-16.72855 4.150439,-4.1507 17.568333,-3.87342 21.719037,0.27729 4.150781,4.15078 2.856971,12.85504 -1.293812,17.00583 z"
       fill="#ffffff"
       id="path6663"
       style="display:inline;fill:#00ff00;stroke-width:0.264583" />
    <path
       d="m 112.26125,160.08949 c 4.15078,4.15078 13.59429,3.59621 17.74507,-0.55457 4.15079,-4.15078 6.83075,-12.57776 2.67997,-16.72855 -4.15026,-4.1507 -17.56834,-3.87342 -21.71912,0.27729 -4.15025,4.15078 -2.85671,12.85504 1.29408,17.00583 z"
       fill="#ffffff"
       id="path6665"
       style="display:inline;fill:#00ff00;stroke-width:0.264583" />
  </g>
  <g
     inkscape:groupmode="layer"
     id="layer2"
     inkscape:label="round"
     style="display:none">
    <g
       id="g205"
       transform="translate(-62.615699,-23.997962)"
       style="display:inline">
      <path
         d="m 176.65248,174.07124 h -3.06917 c 0,-3.57648 -2.90988,-6.48618 -6.48652,-6.48618 -3.57637,0 -6.486,2.9097 -6.486,6.48618 h -3.06924 c 0,-5.26875 4.28659,-9.55535 9.55524,-9.55535 5.26918,0 9.55569,4.2866 9.55569,9.55535 z"
         fill="#ffe36d"
         id="path107"
         style="stroke-width:0.264583" />
      <g
         mask="url(#mask0_4_1045)"
         id="g116"
         transform="matrix(0.26458333,0,0,0.26458333,134.01567,159.70733)">
        <path
           d="m 103.25,25.5049 c -8.7015,6.6013 -14.3335,17.0453 -14.3335,28.784 h 11.6005 c 0,-7.6694 3.545,-14.52 9.076,-19.0187 -2.888,-2.6373 -5.115,-5.988 -6.343,-9.7653 z"
           fill="#ffe36d"
           id="path112" />
        <path
           d="m 146.21,25.0614 c -1.152,3.8107 -3.306,7.212 -6.145,9.9054 5.759,4.4893 9.481,11.472 9.481,19.3226 h 11.602 c 0,-12.008 -5.895,-22.6573 -14.938,-29.228 z"
           fill="#ffe36d"
           id="path114" />
      </g>
      <path
         d="m 162.44012,174.07127 c 0,7.80346 -6.32603,14.12957 -14.12946,14.12957 -7.80381,0 -14.12947,-6.32611 -14.12947,-14.12957 0,-7.80344 6.32566,-14.12945 14.12947,-14.12945 7.80343,0 14.12946,6.32601 14.12946,14.12945 z"
         fill="#ffe36d"
         id="path118"
         style="stroke-width:0.264583" />
      <path
         d="m 199.90724,174.07127 c 0,7.80346 -6.32619,14.12957 -14.12955,14.12957 -7.80388,0 -14.12954,-6.32611 -14.12954,-14.12957 0,-7.80344 6.32566,-14.12945 14.12954,-14.12945 7.80336,0 14.12955,6.32601 14.12955,14.12945 z"
         fill="#ffe36d"
         id="path120"
         style="stroke-width:0.264583" />
      <path
         d="m 197.36697,174.07127 c 0,6.4008 -5.18848,11.58946 -11.58928,11.58946 -6.40053,0 -11.58954,-5.18866 -11.58954,-11.58946 0,-6.4008 5.18901,-11.58947 11.58954,-11.58947 6.4008,0 11.58928,5.18867 11.58928,11.58947 z"
         fill="#332a31"
         id="path122"
         style="stroke-width:0.264583" />
      <path
         d="m 159.89996,174.07127 c 0,6.4008 -5.18866,11.58946 -11.58946,11.58946 -6.40043,0 -11.58944,-5.18866 -11.58944,-11.58946 0,-6.4008 5.18901,-11.58947 11.58944,-11.58947 6.4008,0 11.58946,5.18867 11.58946,11.58947 z"
         fill="#332a31"
         id="path124"
         style="stroke-width:0.264583" />
    </g>
  </g>
  <g
     inkscape:groupmode="layer"
     id="layer5"
     inkscape:label="aviator">
    <g
       style="fill:none"
       id="g445"
       transform="matrix(0.26458333,0,0,0.26458333,71.066331,137.92002)">
      <path
         id="path397"
         style="fill:#000000"
         d="M 324.26367 521.63086 C 293.60907 521.63086 277.89888 526.93421 273.32422 538.82617 C 271.51222 543.53957 268.14106 558.35684 269.28906 574.07812 C 270.7344 593.88482 278.88598 607.30969 292.86328 612.90039 C 298.38728 615.10969 304.01087 616.23047 309.57617 616.23047 L 309.58008 616.23047 C 332.38138 616.23047 349.51205 597.91796 359.74805 586.97656 C 360.33475 586.34856 360.8975 585.74583 361.4375 585.17383 C 370.31544 575.76306 377.42455 560.94922 378.16016 549.36523 C 378.37665 549.13963 378.5347 548.85171 378.5957 548.52148 C 378.6067 548.46418 380.03136 542.76562 393.44336 542.76562 C 406.65436 542.76562 408.25188 548.38139 408.29688 548.55469 C 408.36152 548.87149 408.51585 549.14659 408.72461 549.36523 C 409.46009 560.94923 416.56945 575.76304 425.44727 585.17383 C 425.98727 585.74583 426.55167 586.34856 427.13867 586.97656 C 437.37467 597.91796 454.50464 616.23047 477.30664 616.23047 L 477.30859 616.23047 C 482.87459 616.23047 488.49748 615.10969 494.02148 612.90039 C 507.99848 607.30969 516.1507 593.88482 517.5957 574.07812 C 518.7437 558.35684 515.37255 543.53957 513.56055 538.82617 C 508.98655 526.93421 493.27609 521.63086 462.62109 521.63086 C 457.31553 521.63086 446.77943 522.85911 435.9668 525.53125 C 435.87685 525.16748 435.66802 524.85197 435.38281 524.62695 C 435.24332 524.5169 435.08651 524.42833 434.91602 524.36719 C 434.91077 524.36528 434.90566 524.36318 434.90039 524.36133 C 434.72933 524.30194 434.5449 524.26758 434.35352 524.26758 L 426.72852 524.26758 L 359.50586 524.26758 L 352.53125 524.26758 C 352.34015 524.26758 352.15719 524.30207 351.98633 524.36133 C 351.97961 524.36368 351.97348 524.3667 351.9668 524.36914 C 351.79749 524.43028 351.64059 524.51751 351.50195 524.62695 C 351.217 524.85189 351.00988 525.16772 350.91992 525.53125 C 340.10688 522.85879 329.56955 521.63086 324.26367 521.63086 z M 358.23633 527.59375 L 428.06641 527.59375 L 428.64844 527.59375 C 419.4557 530.51654 413.49935 533.93615 411.01758 537.80859 C 409.92519 539.51274 409.23528 541.53942 408.89062 543.79297 C 406.48138 541.63501 401.94631 539.43945 393.44336 539.43945 C 384.93989 539.43945 380.40377 541.63501 377.99414 543.79297 C 377.64956 541.53942 376.95942 539.51274 375.86719 537.80859 C 373.3846 533.93615 367.42878 530.51654 358.23633 527.59375 z "
         transform="translate(-268.59716,-521.27252)" />
      <g
         mask="url(#mask0_4_1046)"
         id="g406"
         style="fill:#000000">
        <path
           d="m 137.056,20.4065 c -0.172,1.1293 -0.479,2.2307 -0.912,3.2773 2.974,1.5974 3.529,3.4987 3.554,3.5987 0.162,0.784 0.852,1.3293 1.628,1.3293 0.1,0 0.202,-0.0093 0.303,-0.028 0.904,-0.1666 1.501,-1.0333 1.335,-1.936 -0.043,-0.228 -0.783,-3.8066 -5.908,-6.2413 z"
           fill="#ff7c50"
           id="path402"
           style="fill:#000000" />
        <path
           d="m 112.364,20.5434 c -4.875,2.4307 -5.596,5.8814 -5.636,6.104 -0.167,0.9027 0.429,1.7694 1.333,1.936 0.894,0.1627 1.77,-0.4306 1.936,-1.3346 0.007,-0.032 0.471,-1.872 3.302,-3.4627 -0.438,-1.0347 -0.754,-2.124 -0.935,-3.2427 z"
           fill="#ff7c50"
           id="path404"
           style="fill:#000000" />
      </g>
      <g
         mask="url(#mask1_4_1046)"
         id="g417" />
      <path
         d="m 194.045,4.99852 c 31.208,0 42.968,5.87998 46.361,14.69998 3.392,8.82 12.212,55.8587 -17.188,67.6187 -29.4,11.76 -51.563,-14.0213 -62.869,-26.008 -11.308,-11.9853 -19.223,-33.244 -13.57,-42.064 5.655,-8.8187 36.387,-14.24668 47.266,-14.24668 z"
         fill="#ffe36d"
         id="path425"
         style="fill:#000000" />
    </g>
  </g>
</svg>
